<svg width="24" height="25" viewBox="0 0 24 25" fill="none" xmlns="http://www.w3.org/2000/svg">
<path d="M11.9061 15.5238C12.6023 15.5238 13.27 15.2472 13.7623 14.7549C14.2546 14.2626 14.5311 13.5949 14.5311 12.8988C14.5311 12.8219 14.5276 12.7457 14.5211 12.6705L11.6779 15.5137C11.7531 15.5202 11.829 15.5238 11.9061 15.5238ZM20.5949 4.77906L19.5936 3.77875C19.5585 3.74361 19.5108 3.72388 19.4611 3.72388C19.4114 3.72388 19.3637 3.74361 19.3286 3.77875L16.7664 6.34164C15.3529 5.6193 13.7641 5.25813 11.9999 5.25813C7.4952 5.25813 4.13427 7.60422 1.91708 12.2964C1.82796 12.4851 1.78174 12.6912 1.78174 12.8999C1.78174 13.1086 1.82796 13.3147 1.91708 13.5034C2.80302 15.3695 3.86981 16.8652 5.11747 17.9905L2.63802 20.4691C2.60288 20.5042 2.58314 20.5519 2.58314 20.6016C2.58314 20.6513 2.60288 20.699 2.63802 20.7341L3.63856 21.7347C3.67372 21.7698 3.7214 21.7896 3.7711 21.7896C3.82081 21.7896 3.86848 21.7698 3.90364 21.7347L20.5949 5.04438C20.6123 5.02696 20.6262 5.00628 20.6356 4.98352C20.645 4.96076 20.6499 4.93636 20.6499 4.91172C20.6499 4.88708 20.645 4.86268 20.6356 4.83992C20.6262 4.81716 20.6123 4.79648 20.5949 4.77906ZM7.78114 12.8988C7.78108 12.1863 7.96556 11.4859 8.31661 10.8659C8.66767 10.2459 9.17333 9.72742 9.78433 9.36093C10.3953 8.99444 11.0908 8.79246 11.8031 8.77466C12.5154 8.75687 13.2201 8.92386 13.8486 9.25938L12.7091 10.3989C12.2495 10.2518 11.7583 10.234 11.2894 10.3477C10.8204 10.4613 10.3918 10.702 10.0506 11.0432C9.70936 11.3844 9.46873 11.813 9.35508 12.282C9.24142 12.7509 9.25915 13.2422 9.4063 13.7017L8.26677 14.8413C7.94699 14.2438 7.78014 13.5764 7.78114 12.8988Z" fill="#5A5045"/>
<path d="M22.0828 12.2941C21.2578 10.5566 20.2759 9.13979 19.1369 8.0437L15.7587 11.4222C16.0434 12.1666 16.1066 12.9776 15.9404 13.7571C15.7742 14.5366 15.3859 15.2513 14.8223 15.8149C14.2588 16.3785 13.544 16.7668 12.7645 16.9329C11.985 17.0991 11.1741 17.036 10.4297 16.7512L7.56421 19.6167C8.89358 20.2318 10.3722 20.5394 12 20.5394C16.5047 20.5394 19.8656 18.1933 22.0828 13.5011C22.1719 13.3124 22.2182 13.1063 22.2182 12.8976C22.2182 12.6889 22.1719 12.4828 22.0828 12.2941Z" fill="#5A5045"/>
</svg>
