<svg width="20" height="20" viewBox="0 0 20 20" fill="none" xmlns="http://www.w3.org/2000/svg">
<rect width="20" height="20" rx="2" fill="#00629E"/>
<g clip-path="url(#clip0_498_24089)">
<path d="M10 3.33398C6.31804 3.33398 3.33337 6.31865 3.33337 10.0007C3.33337 13.6827 6.31804 16.6673 10 16.6673C13.682 16.6673 16.6667 13.6827 16.6667 10.0007C16.6667 6.31865 13.682 3.33398 10 3.33398Z" stroke="white" stroke-width="1.5" stroke-linecap="round" stroke-linejoin="round"/>
<path d="M4.84741 14.2307C4.84741 14.2307 6.33341 12.3333 10.0001 12.3333C13.6667 12.3333 15.1534 14.2307 15.1534 14.2307M10.0001 10C10.5305 10 11.0392 9.78929 11.4143 9.41421C11.7894 9.03914 12.0001 8.53043 12.0001 8C12.0001 7.46957 11.7894 6.96086 11.4143 6.58579C11.0392 6.21071 10.5305 6 10.0001 6C9.46965 6 8.96094 6.21071 8.58587 6.58579C8.21079 6.96086 8.00008 7.46957 8.00008 8C8.00008 8.53043 8.21079 9.03914 8.58587 9.41421C8.96094 9.78929 9.46965 10 10.0001 10V10Z" stroke="white" stroke-width="1.5" stroke-linecap="round" stroke-linejoin="round"/>
</g>
<defs>
<clipPath id="clip0_498_24089">
<rect width="16" height="16" fill="white" transform="translate(2 2)"/>
</clipPath>
</defs>
</svg>
